<mxfile host="app.diagrams.net" modified="2020-07-01T15:09:18.548Z" agent="5.0 (Windows NT 10.0; Win64; x64) AppleWebKit/537.36 (KHTML, like Gecko) Chrome/81.0.4044.138 Safari/537.36 OPR/68.0.3618.173" etag="esnycMiMM2omnf3UCvBC" version="13.3.5" type="github">
  <diagram id="wBygM1vO_P41j0ZaZtgd" name="Page-1">
    <mxGraphModel dx="2116" dy="835" grid="1" gridSize="10" guides="1" tooltips="1" connect="1" arrows="1" fold="1" page="1" pageScale="1" pageWidth="827" pageHeight="1169" math="0" shadow="0">
      <root>
        <mxCell id="0" />
        <mxCell id="1" parent="0" />
        <mxCell id="PS6INPltkdU6dMFM3WfI-4" style="edgeStyle=orthogonalEdgeStyle;rounded=0;orthogonalLoop=1;jettySize=auto;html=1;entryX=0.5;entryY=0;entryDx=0;entryDy=0;" parent="1" source="PS6INPltkdU6dMFM3WfI-1" target="PS6INPltkdU6dMFM3WfI-2" edge="1">
          <mxGeometry relative="1" as="geometry" />
        </mxCell>
        <mxCell id="PS6INPltkdU6dMFM3WfI-1" value="Se recibe el Proyecto de Acuerdo (PA) DAE para validación geográfica" style="rounded=0;whiteSpace=wrap;html=1;" parent="1" vertex="1">
          <mxGeometry x="205" y="60" width="160" height="70" as="geometry" />
        </mxCell>
        <mxCell id="PS6INPltkdU6dMFM3WfI-10" style="edgeStyle=orthogonalEdgeStyle;rounded=0;orthogonalLoop=1;jettySize=auto;html=1;exitX=0;exitY=0.5;exitDx=0;exitDy=0;entryX=1;entryY=0.5;entryDx=0;entryDy=0;" parent="1" source="PS6INPltkdU6dMFM3WfI-2" target="PS6INPltkdU6dMFM3WfI-9" edge="1">
          <mxGeometry relative="1" as="geometry" />
        </mxCell>
        <mxCell id="PS6INPltkdU6dMFM3WfI-21" style="edgeStyle=orthogonalEdgeStyle;rounded=0;orthogonalLoop=1;jettySize=auto;html=1;entryX=0.5;entryY=0;entryDx=0;entryDy=0;" parent="1" source="PS6INPltkdU6dMFM3WfI-2" target="PS6INPltkdU6dMFM3WfI-18" edge="1">
          <mxGeometry relative="1" as="geometry" />
        </mxCell>
        <mxCell id="PS6INPltkdU6dMFM3WfI-2" value="Se entregan los &lt;b&gt;insumos mínimos &lt;/b&gt;requeridos" style="rhombus;whiteSpace=wrap;html=1;" parent="1" vertex="1">
          <mxGeometry x="225" y="180" width="120" height="120" as="geometry" />
        </mxCell>
        <mxCell id="PS6INPltkdU6dMFM3WfI-11" style="edgeStyle=orthogonalEdgeStyle;rounded=0;orthogonalLoop=1;jettySize=auto;html=1;" parent="1" source="PS6INPltkdU6dMFM3WfI-9" edge="1">
          <mxGeometry relative="1" as="geometry">
            <mxPoint x="110" y="180" as="targetPoint" />
          </mxGeometry>
        </mxCell>
        <mxCell id="PS6INPltkdU6dMFM3WfI-9" value="Se genera un oficio de aclaración o solicitud a la DAE. Se cierra el caso" style="rounded=0;whiteSpace=wrap;html=1;" parent="1" vertex="1">
          <mxGeometry x="50" y="210" width="120" height="60" as="geometry" />
        </mxCell>
        <mxCell id="PS6INPltkdU6dMFM3WfI-13" value="FIN" style="ellipse;whiteSpace=wrap;html=1;aspect=fixed;" parent="1" vertex="1">
          <mxGeometry x="85" y="130" width="50" height="50" as="geometry" />
        </mxCell>
        <mxCell id="PS6INPltkdU6dMFM3WfI-14" value="NO" style="text;html=1;strokeColor=none;fillColor=none;align=center;verticalAlign=middle;whiteSpace=wrap;rounded=0;" parent="1" vertex="1">
          <mxGeometry x="198" y="221" width="40" height="20" as="geometry" />
        </mxCell>
        <mxCell id="PS6INPltkdU6dMFM3WfI-16" value="&lt;h1&gt;Insumos Mínimos&lt;/h1&gt;&lt;p&gt;a. Oficio Solicitud de Validación Técnica dirigido a la SSIT.&lt;/p&gt;&lt;p&gt;b. Capa Geográfica asociada a la pretensión que hace parte del Proyecto de Acuerdo (PA)&lt;/p&gt;&lt;p&gt;c. Plano Topográfico vinculado al PA debidamente numerado&lt;/p&gt;" style="text;html=1;strokeColor=none;fillColor=none;spacing=5;spacingTop=-20;whiteSpace=wrap;overflow=hidden;rounded=0;" parent="1" vertex="1">
          <mxGeometry x="390" y="135" width="190" height="210" as="geometry" />
        </mxCell>
        <mxCell id="PS6INPltkdU6dMFM3WfI-17" value="" style="endArrow=none;dashed=1;html=1;entryX=0;entryY=0.5;entryDx=0;entryDy=0;exitX=1;exitY=0.5;exitDx=0;exitDy=0;" parent="1" target="PS6INPltkdU6dMFM3WfI-16" edge="1" source="PS6INPltkdU6dMFM3WfI-2">
          <mxGeometry width="50" height="50" relative="1" as="geometry">
            <mxPoint x="315" y="210" as="sourcePoint" />
            <mxPoint x="365" y="160" as="targetPoint" />
          </mxGeometry>
        </mxCell>
        <mxCell id="PS6INPltkdU6dMFM3WfI-20" style="edgeStyle=orthogonalEdgeStyle;rounded=0;orthogonalLoop=1;jettySize=auto;html=1;entryX=0.5;entryY=1;entryDx=0;entryDy=0;" parent="1" source="PS6INPltkdU6dMFM3WfI-18" target="PS6INPltkdU6dMFM3WfI-9" edge="1">
          <mxGeometry relative="1" as="geometry" />
        </mxCell>
        <mxCell id="PS6INPltkdU6dMFM3WfI-23" style="edgeStyle=orthogonalEdgeStyle;rounded=0;orthogonalLoop=1;jettySize=auto;html=1;exitX=0.5;exitY=1;exitDx=0;exitDy=0;entryX=0.5;entryY=0;entryDx=0;entryDy=0;" parent="1" source="PS6INPltkdU6dMFM3WfI-18" target="PS6INPltkdU6dMFM3WfI-22" edge="1">
          <mxGeometry relative="1" as="geometry" />
        </mxCell>
        <mxCell id="PS6INPltkdU6dMFM3WfI-18" value="El PA cuenta&lt;br&gt;con plano &lt;br&gt;numerado?" style="rhombus;whiteSpace=wrap;html=1;" parent="1" vertex="1">
          <mxGeometry x="222.5" y="345" width="125" height="120" as="geometry" />
        </mxCell>
        <mxCell id="PS6INPltkdU6dMFM3WfI-27" style="edgeStyle=orthogonalEdgeStyle;rounded=0;orthogonalLoop=1;jettySize=auto;html=1;exitX=0;exitY=0.5;exitDx=0;exitDy=0;entryX=1;entryY=0.5;entryDx=0;entryDy=0;" parent="1" source="PS6INPltkdU6dMFM3WfI-22" target="PS6INPltkdU6dMFM3WfI-26" edge="1">
          <mxGeometry relative="1" as="geometry" />
        </mxCell>
        <mxCell id="PS6INPltkdU6dMFM3WfI-30" style="edgeStyle=orthogonalEdgeStyle;rounded=0;orthogonalLoop=1;jettySize=auto;html=1;exitX=1;exitY=0.5;exitDx=0;exitDy=0;entryX=0;entryY=0.5;entryDx=0;entryDy=0;" parent="1" source="PS6INPltkdU6dMFM3WfI-22" target="PS6INPltkdU6dMFM3WfI-29" edge="1">
          <mxGeometry relative="1" as="geometry" />
        </mxCell>
        <mxCell id="PS6INPltkdU6dMFM3WfI-22" value="El número de &lt;br&gt;plano fue asignado por&amp;nbsp;la &lt;br&gt;SSIT\ANT?" style="rhombus;whiteSpace=wrap;html=1;" parent="1" vertex="1">
          <mxGeometry x="222.5" y="500" width="125" height="120" as="geometry" />
        </mxCell>
        <mxCell id="PS6INPltkdU6dMFM3WfI-24" value="NO" style="text;html=1;strokeColor=none;fillColor=none;align=center;verticalAlign=middle;whiteSpace=wrap;rounded=0;" parent="1" vertex="1">
          <mxGeometry x="191.5" y="387" width="40" height="20" as="geometry" />
        </mxCell>
        <mxCell id="PS6INPltkdU6dMFM3WfI-25" value="SI" style="text;html=1;strokeColor=none;fillColor=none;align=center;verticalAlign=middle;whiteSpace=wrap;rounded=0;" parent="1" vertex="1">
          <mxGeometry x="275" y="295" width="40" height="20" as="geometry" />
        </mxCell>
        <mxCell id="PS6INPltkdU6dMFM3WfI-26" value="Se procede a ejecutar el procedimiento técnico asociado a la numeración de plano (sin generar el número)" style="rounded=0;whiteSpace=wrap;html=1;" parent="1" vertex="1">
          <mxGeometry y="530" width="170" height="60" as="geometry" />
        </mxCell>
        <mxCell id="PS6INPltkdU6dMFM3WfI-28" value="NO" style="text;html=1;strokeColor=none;fillColor=none;align=center;verticalAlign=middle;whiteSpace=wrap;rounded=0;" parent="1" vertex="1">
          <mxGeometry x="190" y="540" width="40" height="20" as="geometry" />
        </mxCell>
        <mxCell id="PS6INPltkdU6dMFM3WfI-39" style="edgeStyle=orthogonalEdgeStyle;rounded=0;orthogonalLoop=1;jettySize=auto;html=1;entryX=0;entryY=0.5;entryDx=0;entryDy=0;" parent="1" source="PS6INPltkdU6dMFM3WfI-29" target="PS6INPltkdU6dMFM3WfI-38" edge="1">
          <mxGeometry relative="1" as="geometry" />
        </mxCell>
        <mxCell id="PS6INPltkdU6dMFM3WfI-29" value="Se corrobora el número de plano con la información registrada en el sitio &lt;b&gt;Sharepoint&lt;/b&gt; de numeración de planos" style="rounded=0;whiteSpace=wrap;html=1;" parent="1" vertex="1">
          <mxGeometry x="400" y="530" width="210" height="60" as="geometry" />
        </mxCell>
        <mxCell id="PS6INPltkdU6dMFM3WfI-31" value="SI" style="text;html=1;strokeColor=none;fillColor=none;align=center;verticalAlign=middle;whiteSpace=wrap;rounded=0;" parent="1" vertex="1">
          <mxGeometry x="275" y="462" width="40" height="20" as="geometry" />
        </mxCell>
        <mxCell id="PS6INPltkdU6dMFM3WfI-32" value="SI" style="text;html=1;strokeColor=none;fillColor=none;align=center;verticalAlign=middle;whiteSpace=wrap;rounded=0;" parent="1" vertex="1">
          <mxGeometry x="334" y="560" width="40" height="20" as="geometry" />
        </mxCell>
        <mxCell id="PS6INPltkdU6dMFM3WfI-33" value="&lt;h1&gt;Sharepoint&lt;/h1&gt;&lt;p&gt;https://agenciadetierras.sharepoint.com/sites/NumeraciondePlanos&lt;br&gt;&lt;/p&gt;" style="text;html=1;strokeColor=none;fillColor=none;spacing=5;spacingTop=-20;whiteSpace=wrap;overflow=hidden;rounded=0;" parent="1" vertex="1">
          <mxGeometry x="414" y="840" width="370" height="80" as="geometry" />
        </mxCell>
        <mxCell id="PS6INPltkdU6dMFM3WfI-36" value="" style="endArrow=none;dashed=1;html=1;entryX=0.5;entryY=1;entryDx=0;entryDy=0;exitX=0.25;exitY=0;exitDx=0;exitDy=0;" parent="1" source="PS6INPltkdU6dMFM3WfI-33" target="PS6INPltkdU6dMFM3WfI-29" edge="1">
          <mxGeometry width="50" height="50" relative="1" as="geometry">
            <mxPoint x="510" y="440" as="sourcePoint" />
            <mxPoint x="560" y="390" as="targetPoint" />
          </mxGeometry>
        </mxCell>
        <mxCell id="PS6INPltkdU6dMFM3WfI-46" style="edgeStyle=orthogonalEdgeStyle;rounded=0;orthogonalLoop=1;jettySize=auto;html=1;entryX=0;entryY=0.5;entryDx=0;entryDy=0;" parent="1" source="PS6INPltkdU6dMFM3WfI-38" target="PS6INPltkdU6dMFM3WfI-45" edge="1">
          <mxGeometry relative="1" as="geometry" />
        </mxCell>
        <mxCell id="vN12nqyZvuzHO2JqNoDz-16" style="edgeStyle=orthogonalEdgeStyle;rounded=0;orthogonalLoop=1;jettySize=auto;html=1;exitX=0.5;exitY=0;exitDx=0;exitDy=0;entryX=0.5;entryY=1;entryDx=0;entryDy=0;" edge="1" parent="1" source="PS6INPltkdU6dMFM3WfI-38" target="PS6INPltkdU6dMFM3WfI-40">
          <mxGeometry relative="1" as="geometry" />
        </mxCell>
        <mxCell id="PS6INPltkdU6dMFM3WfI-38" value="Se tiene la geometría centralizada por parte &lt;br&gt;de la SSIT\ESIG?" style="rhombus;whiteSpace=wrap;html=1;" parent="1" vertex="1">
          <mxGeometry x="670" y="485" width="150" height="150" as="geometry" />
        </mxCell>
        <mxCell id="vN12nqyZvuzHO2JqNoDz-17" style="edgeStyle=orthogonalEdgeStyle;rounded=0;orthogonalLoop=1;jettySize=auto;html=1;exitX=0.5;exitY=0;exitDx=0;exitDy=0;entryX=0.5;entryY=1;entryDx=0;entryDy=0;" edge="1" parent="1" source="PS6INPltkdU6dMFM3WfI-40" target="PS6INPltkdU6dMFM3WfI-42">
          <mxGeometry relative="1" as="geometry" />
        </mxCell>
        <mxCell id="PS6INPltkdU6dMFM3WfI-40" value="Centralizar la información&amp;nbsp;&lt;br&gt;geográfica suministrada en el PA dentro de los repositorios de datos asociados a la numeración de planos ESIG" style="rounded=0;whiteSpace=wrap;html=1;" parent="1" vertex="1">
          <mxGeometry x="622.5" y="387" width="245" height="60" as="geometry" />
        </mxCell>
        <mxCell id="vN12nqyZvuzHO2JqNoDz-20" style="edgeStyle=orthogonalEdgeStyle;rounded=0;orthogonalLoop=1;jettySize=auto;html=1;entryX=0;entryY=0.5;entryDx=0;entryDy=0;" edge="1" parent="1" source="PS6INPltkdU6dMFM3WfI-42" target="vN12nqyZvuzHO2JqNoDz-18">
          <mxGeometry relative="1" as="geometry" />
        </mxCell>
        <mxCell id="PS6INPltkdU6dMFM3WfI-42" value="Actualizar &lt;b&gt;Sharepoint&lt;/b&gt; con la ruta de acceso a los datos geográficos" style="rounded=0;whiteSpace=wrap;html=1;" parent="1" vertex="1">
          <mxGeometry x="640" y="295" width="210" height="60" as="geometry" />
        </mxCell>
        <mxCell id="vN12nqyZvuzHO2JqNoDz-2" style="edgeStyle=orthogonalEdgeStyle;rounded=0;orthogonalLoop=1;jettySize=auto;html=1;exitX=1;exitY=0.5;exitDx=0;exitDy=0;entryX=0;entryY=0.5;entryDx=0;entryDy=0;" edge="1" parent="1" source="PS6INPltkdU6dMFM3WfI-45" target="vN12nqyZvuzHO2JqNoDz-1">
          <mxGeometry relative="1" as="geometry" />
        </mxCell>
        <mxCell id="PS6INPltkdU6dMFM3WfI-45" value="Se corrobora que la geometría numerada sea la misma que la entregada dentro del PA" style="rounded=0;whiteSpace=wrap;html=1;" parent="1" vertex="1">
          <mxGeometry x="890" y="530" width="180" height="60" as="geometry" />
        </mxCell>
        <mxCell id="vN12nqyZvuzHO2JqNoDz-4" style="edgeStyle=orthogonalEdgeStyle;rounded=0;orthogonalLoop=1;jettySize=auto;html=1;entryX=0;entryY=0.5;entryDx=0;entryDy=0;" edge="1" parent="1" source="vN12nqyZvuzHO2JqNoDz-1" target="PS6INPltkdU6dMFM3WfI-9">
          <mxGeometry relative="1" as="geometry">
            <Array as="points">
              <mxPoint x="1175" y="930" />
              <mxPoint x="-30" y="930" />
              <mxPoint x="-30" y="240" />
            </Array>
          </mxGeometry>
        </mxCell>
        <mxCell id="vN12nqyZvuzHO2JqNoDz-19" style="edgeStyle=orthogonalEdgeStyle;rounded=0;orthogonalLoop=1;jettySize=auto;html=1;exitX=0.5;exitY=0;exitDx=0;exitDy=0;entryX=0.5;entryY=1;entryDx=0;entryDy=0;" edge="1" parent="1" source="vN12nqyZvuzHO2JqNoDz-1" target="vN12nqyZvuzHO2JqNoDz-18">
          <mxGeometry relative="1" as="geometry" />
        </mxCell>
        <mxCell id="vN12nqyZvuzHO2JqNoDz-1" value="Se presenta la misma geometría en el PA?" style="rhombus;whiteSpace=wrap;html=1;" vertex="1" parent="1">
          <mxGeometry x="1120" y="500" width="110" height="120" as="geometry" />
        </mxCell>
        <mxCell id="vN12nqyZvuzHO2JqNoDz-7" value="NO" style="text;html=1;strokeColor=none;fillColor=none;align=center;verticalAlign=middle;whiteSpace=wrap;rounded=0;" vertex="1" parent="1">
          <mxGeometry x="739" y="470" width="40" height="20" as="geometry" />
        </mxCell>
        <mxCell id="vN12nqyZvuzHO2JqNoDz-8" value="SI" style="text;html=1;strokeColor=none;fillColor=none;align=center;verticalAlign=middle;whiteSpace=wrap;rounded=0;" vertex="1" parent="1">
          <mxGeometry x="810" y="540" width="40" height="20" as="geometry" />
        </mxCell>
        <mxCell id="vN12nqyZvuzHO2JqNoDz-10" value="NO" style="text;html=1;strokeColor=none;fillColor=none;align=center;verticalAlign=middle;whiteSpace=wrap;rounded=0;" vertex="1" parent="1">
          <mxGeometry x="1168" y="617" width="40" height="20" as="geometry" />
        </mxCell>
        <mxCell id="vN12nqyZvuzHO2JqNoDz-21" style="edgeStyle=orthogonalEdgeStyle;rounded=0;orthogonalLoop=1;jettySize=auto;html=1;entryX=0.5;entryY=0;entryDx=0;entryDy=0;" edge="1" parent="1" source="vN12nqyZvuzHO2JqNoDz-18" target="PS6INPltkdU6dMFM3WfI-13">
          <mxGeometry relative="1" as="geometry">
            <Array as="points">
              <mxPoint x="1175" y="230" />
              <mxPoint x="625" y="230" />
              <mxPoint x="625" y="30" />
              <mxPoint x="110" y="30" />
            </Array>
          </mxGeometry>
        </mxCell>
        <mxCell id="vN12nqyZvuzHO2JqNoDz-18" value="Se procede a validar técnicamente el PA por medio de Oficio" style="rounded=0;whiteSpace=wrap;html=1;" vertex="1" parent="1">
          <mxGeometry x="1115" y="402" width="120" height="60" as="geometry" />
        </mxCell>
      </root>
    </mxGraphModel>
  </diagram>
</mxfile>
